<svg width="16" height="16" viewBox="0 0 16 16" fill="none" xmlns="http://www.w3.org/2000/svg">
<path d="M1.8402 0.331829C1.42364 -0.0847306 0.748266 -0.0847306 0.331707 0.331829C-0.0848527 0.748388 -0.0848527 1.42376 0.331707 1.84032L6.49142 8.00004L0.33177 14.1597C-0.0847887 14.5763 -0.0847891 15.2516 0.33177 15.6682C0.748329 16.0847 1.42371 16.0847 1.84026 15.6682L7.99992 9.50854L14.1596 15.6682C14.5761 16.0847 15.2515 16.0847 15.6681 15.6682C16.0846 15.2516 16.0846 14.5763 15.6681 14.1597L9.50841 8.00004L15.6681 1.84032C16.0847 1.42376 16.0847 0.748388 15.6681 0.331829C15.2516 -0.0847306 14.5762 -0.0847306 14.1596 0.331829L7.99992 6.49155L1.8402 0.331829Z"/>
</svg>
